<svg xmlns="http://www.w3.org/2000/svg" width="542.03" height="328.79" viewBox="0 0 542.03 328.79">
  <defs>
    <style>
      .cls-1 {
        fill: #ffca00;
      }

      .cls-2 {
        fill: #fff;
      }

      .cls-3 {
        isolation: isolate;
      }
    </style>
  </defs>
  <g id="Layer_2" data-name="Layer 2">
    <g id="Layer_1-2" data-name="Layer 1">
      <g>
        <path class="cls-1" d="M275.53,137.76v.41c0,3.6-.16,7.16-.44,10.7-.08,1-.17,2-.28,3-.44,4.26-1.06,8.46-1.89,12.6a.6.6,0,0,1,0,.12q-1.15,5.88-2.81,11.57c-.26.91-.53,1.83-.81,2.73-.87,2.77-1.83,5.52-2.87,8.22-.62,1.61-1.27,3.22-2,4.81q-1.14,2.67-2.4,5.28-1.67,3.5-3.53,6.87c-.5.91-1,1.81-1.52,2.71q-2.47,4.26-5.24,8.31l-.34.51q-3,4.31-6.24,8.38L244,225.45c-1.79,2.15-3.63,4.26-5.54,6.3-1,1-1.94,2.05-2.95,3.06-1.42,1.44-2.89,2.85-4.38,4.23-1.65,1.51-3.32,3-5,4.42-.89.76-1.8,1.49-2.71,2.22-2.41,1.9-4.86,3.73-7.39,5.46-.35.25-.7.5-1,.73q-4.34,3-8.89,5.56l-1.18.66c-2.76,1.54-5.57,3-8.44,4.34-1.15.55-2.31,1.07-3.48,1.59q-3.28,1.43-6.63,2.7c-2.15.81-4.3,1.56-6.48,2.25h0c-1.5.48-3,.94-4.51,1.37-3.14.89-6.34,1.67-9.58,2.34-.69.15-1.4.29-2.1.42q-6.32,1.2-12.83,1.81L150,275q-6,.56-12.24.55h-.7c-1.5,0-3,0-4.46-.1q-5.62-.21-11.13-.86c-3.1-.37-6.18-.83-9.21-1.4-2.86-.54-5.7-1.16-8.5-1.87h0A134.8,134.8,0,0,1,87.28,266q-3-1.19-6-2.52a138.34,138.34,0,0,1-69.24-69.23c-.88-2-1.72-4-2.51-6a136.11,136.11,0,0,1-5.33-16.49h0q-1-4.19-1.86-8.48c-.57-3-1-6.11-1.4-9.22-.44-3.67-.72-7.38-.87-11.13,0-1.48-.08-3-.09-4.45v-.71q0-6.18.55-12.23c0-.28,0-.55.07-.84q.6-6.5,1.81-12.82c.13-.71.27-1.41.42-2.12.67-3.22,1.45-6.42,2.34-9.56.42-1.51.87-3,1.36-4.5q1-3.28,2.26-6.51c.85-2.23,1.74-4.44,2.71-6.61.5-1.17,1-2.33,1.58-3.49,1.34-2.86,2.8-5.68,4.33-8.44.22-.39.44-.79.67-1.18q2.61-4.56,5.56-8.89c.23-.35.48-.7.73-1q2.59-3.8,5.45-7.39c.74-.92,1.47-1.82,2.23-2.71,1.43-1.72,2.91-3.4,4.42-5s2.78-3,4.23-4.38c1-1,2-2,3.06-3q3.06-2.86,6.3-5.54l1.44-1.17c2.7-2.18,5.51-4.26,8.38-6.24l.51-.34q4.05-2.76,8.31-5.24c.9-.51,1.8-1,2.71-1.52,2.25-1.24,4.54-2.43,6.86-3.54,1.74-.83,3.51-1.63,5.29-2.39q2.39-1,4.81-2c2.7-1,5.45-2,8.22-2.87l2.73-.82Q105,3.78,110.91,2.62l.12,0c4.14-.82,8.33-1.44,12.6-1.89,1-.1,2-.19,3-.27,3.54-.28,7.1-.43,10.7-.44h.4c2.25,0,4.48.06,6.7.16,2.81.13,5.59.36,8.35.66q6.09.66,12,1.84c1.82.36,3.62.75,5.42,1.19a134.44,134.44,0,0,1,20.59,6.76c.45.17.9.36,1.36.56a138.22,138.22,0,0,1,72.18,72.18c.2.45.38.91.56,1.36a134.56,134.56,0,0,1,6.76,20.6c.43,1.79.83,3.6,1.19,5.41.79,3.94,1.4,8,1.84,12,.3,2.76.53,5.55.66,8.36C275.47,133.3,275.53,135.53,275.53,137.76Z"/>
        <path class="cls-2" d="M272.87,110.72,164.81,2.66c1.82.36,3.62.75,5.42,1.19a134.44,134.44,0,0,1,20.59,6.76l74.1,74.1a134.56,134.56,0,0,1,6.76,20.6C272.11,107.1,272.51,108.91,272.87,110.72Z"/>
        <path class="cls-2" d="M275.53,137.76v.41c0,3.6-.16,7.16-.44,10.7L126.66.44c3.54-.28,7.1-.43,10.7-.44h.4c2.25,0,4.48.06,6.7.16L275.37,131.08C275.47,133.3,275.53,135.53,275.53,137.76Z"/>
        <path class="cls-2" d="M272.92,164.5a.6.6,0,0,1,0,.12q-1.15,5.88-2.81,11.57c-.26.91-.53,1.83-.81,2.73L96.61,6.25l2.73-.82Q105,3.78,110.91,2.62l.12,0Z"/>
        <path class="cls-2" d="M264.46,192q-1.14,2.67-2.4,5.28-1.67,3.5-3.53,6.87L71.43,17c2.25-1.24,4.54-2.43,6.86-3.54,1.74-.83,3.51-1.63,5.29-2.39Z"/>
        <path class="cls-2" d="M251.77,215.12l-.34.51q-3,4.31-6.24,8.38L244,225.45,50.08,31.51l1.44-1.17c2.7-2.18,5.51-4.26,8.38-6.24l.51-.34Z"/>
        <path class="cls-2" d="M235.53,234.81c-1.42,1.44-2.89,2.85-4.38,4.23-1.65,1.51-3.32,3-5,4.42l-194-194c1.43-1.72,2.91-3.4,4.42-5s2.78-3,4.23-4.38Z"/>
        <path class="cls-2" d="M216,251.14c-.35.25-.7.5-1,.73q-4.34,3-8.89,5.56l-1.18.66L17.43,70.64c.22-.39.44-.79.67-1.18q2.61-4.56,5.56-8.89c.23-.35.48-.7.73-1Z"/>
        <path class="cls-2" d="M193,264q-3.28,1.43-6.63,2.7c-2.15.81-4.3,1.56-6.48,2.25h0L6.55,95.69q1-3.28,2.26-6.51c.85-2.23,1.74-4.44,2.71-6.61Z"/>
        <path class="cls-2" d="M165.76,272.68c-.69.15-1.4.29-2.1.42q-6.32,1.2-12.83,1.81L150,275,.55,125.53c0-.28,0-.55.07-.84q.6-6.5,1.81-12.82c.13-.71.27-1.41.42-2.12Z"/>
        <path class="cls-2" d="M132.6,275.43q-5.62-.21-11.13-.86c-3.1-.37-6.18-.83-9.21-1.4L2.36,163.27c-.57-3-1-6.11-1.4-9.22-.44-3.67-.72-7.38-.87-11.13Z"/>
        <path class="cls-2" d="M87.28,266q-3-1.19-6-2.52a138.34,138.34,0,0,1-69.24-69.23c-.88-2-1.72-4-2.51-6Z"/>
      </g>
      <g id="orange" class="cls-3">
        <g class="cls-3">
          <path d="M91.25,196.45q-9.06-9-9.06-26t9.69-26q9.7-9.12,27.25-9.13t26.19,8.43q8.63,8.42,8.63,25.69,0,36.09-35.95,36.09Q100.3,205.51,91.25,196.45Zm35.53-20.24v-12q0-13.73-1.49-20t-6.87-6.3a7.09,7.09,0,0,0-5,1.77c-1.27,1.18-2.2,3.14-2.76,5.88q-1.27,6.36-1.28,19.39v11q0,15.44.92,18.54a31.24,31.24,0,0,0,1.92,5.1c1,2.26,3.06,3.4,6.08,3.4q5.52,0,7.22-6.37Q126.78,192.07,126.78,176.21Z"/>
          <path d="M205.2,140.68c-3.5,0-6.56,2.27-9.21,6.8a31.49,31.49,0,0,0-4,16.13v37.94h10.05v2.55H157.92v-2.55h7.78V139.27h-7.78v-2.55H192v13.59a19.08,19.08,0,0,1,19-15,15.62,15.62,0,0,1,10.83,3.76q4.17,3.75,4.17,10.61t-3.11,10.55q-3.12,3.67-9.56,3.68t-9.48-4.25q-3-4.25-.78-11.75h5.1C210.53,143.09,209.53,140.68,205.2,140.68Z"/>
          <path d="M259.83,170.83h4.11v-10.9q0-13.44-1.49-18t-5.73-4.6a8.26,8.26,0,0,0-4.6,1.34,4.18,4.18,0,0,0-2.05,3.68,14.28,14.28,0,0,0,.84,4.74h3.54a20,20,0,0,1,1.14,7.15,9.24,9.24,0,0,1-3.54,7.22,13.2,13.2,0,0,1-8.92,3q-12.18,0-12.17-11.74,0-17.41,29.58-17.42,16.84,0,23.29,5.74t6.44,21v28.73c0,4.91,1.36,7.36,4.1,7.36q4.81,0,5.66-14.58l2.13.14q-.57,12.47-4.67,17.13T284,205.51q-17,0-19.54-10.47A15.17,15.17,0,0,1,259,203q-3.68,2.53-10.75,2.54-21,0-20.95-17.12,0-10,8-13.81T259.83,170.83ZM255,197.73a2.94,2.94,0,0,0,3,2.12q2.19,0,4.11-3.61t1.91-10V173.1h-1q-8.79,0-8.78,12.88v2.26Q254.17,195.61,255,197.73Z"/>
          <path d="M303.85,136.72H338v13a23.53,23.53,0,0,1,6.93-10.47q4.68-4,14.16-4,21.94,0,21.94,23.64v42.61h7.93v2.55H348.87v-2.55h5.8v-46q0-8.51-1.13-11a4.13,4.13,0,0,0-4.11-2.48q-4.53,0-8,5.94A28.15,28.15,0,0,0,338,162.48v39.07h6.09v2.55H303.85v-2.55h7.79V139.27h-7.79Z"/>
          <path d="M447.53,129.36l4-2.41c.57-2.92-.57-4.39-3.4-4.39q-6.09,0-6.08,9.35a42.79,42.79,0,0,0,1,8.49q10.75,7.22,10.76,18.47T446,176.35q-7.79,6.24-21.09,6.23a60.93,60.93,0,0,1-11.47-1.13q-6.23,4-6.22,5.94c0,1.33,3,2,9.05,2h14.44q32.13,0,32.14,23.07,0,12.45-9.7,19.75t-30.22,7.29q-35,0-35-15.15,0-8.21,10.89-11.32l8.5,3.82a29,29,0,0,0-1.13,7.78q0,12.18,18.11,12.18,11,0,17-4.11t5.94-10.19q0-6.09-3.6-8.14t-14.37-2.05H415.54q-11.48,0-16.42-3.82t-5-9.42a13.09,13.09,0,0,1,3.54-9.34q3.54-3.75,12.6-9.27-16.43-4.67-16.42-21.52,0-10.6,7.64-17.12t22.93-6.52a32.63,32.63,0,0,1,15.72,3.54,31.94,31.94,0,0,1-.85-6.93q0-7.93,4.24-11.47a14.48,14.48,0,0,1,9.49-3.54,12.4,12.4,0,0,1,8.42,2.76,9.52,9.52,0,0,1,3.19,7.58q0,4.81-2.55,7.14a8.78,8.78,0,0,1-6.16,2.34,9.12,9.12,0,0,1-5.95-1.91A7,7,0,0,1,447.53,129.36Zm-30,26.47v7.64q0,9.5,1.63,12.88a5.24,5.24,0,0,0,5,3.4,5,5,0,0,0,4.81-3.33c1-2.21,1.49-6.77,1.49-13.65v-6.94q0-11-1.42-14.51t-4.74-3.47c-2.22,0-3.89,1.21-5,3.61S417.52,148.66,417.52,155.83Z"/>
          <path d="M470.24,196.1q-9.12-9.4-9.13-26.19t10.27-25.69q10.26-8.91,26.11-8.92,32.13,0,30.86,32.28H488.43v5.52q0,13.88,3.54,21t12.32,7.08q16.41,0,21.51-17.56l2.55.43q-2.69,10.19-9.69,15.85t-21,5.66Q479.37,205.51,470.24,196.1Zm18.34-31.35h14.58v-6.94q0-11.46-1.35-15.64c-.9-2.78-2.69-4.18-5.38-4.18s-4.67,1.49-5.94,4.46-1.91,8.1-1.91,15.36Z"/>
        </g>
      </g>
      <g id="cph" class="cls-3">
        <g class="cls-3">
          <path d="M381.94,247.59q-5.06,0-7.25,5.52t-2.18,18.29v6q0,11.39,2.53,16.33t9.32,4.94a13.64,13.64,0,0,0,10.81-4.6,22.12,22.12,0,0,0,5.17-10.46l2.07.23q-2.19,9.89-8.05,14.26t-16.45,4.48q-13.34,0-20.47-7.18t-7.13-21.05q0-13.86,8.11-21.34t22.6-7.47q10.23,0,15.64,4t5.41,9.95c0,4-.87,6.9-2.59,8.74a9.3,9.3,0,0,1-7.13,2.76,10.71,10.71,0,0,1-7.31-2.42c-1.84-1.61-2.76-4-2.76-7.13a15.55,15.55,0,0,1,.58-4.14h3.8a12.81,12.81,0,0,0,.8-4.14Q387.46,247.59,381.94,247.59Z"/>
          <path d="M432.77,246.67v9.08q4.49-10.23,15.87-10.23,9.9,0,15.36,7.13t5.46,21.62q0,14.49-5.92,21.39t-17.77,6.9q-5.52,0-8.28-1.38a10.83,10.83,0,0,1-4.49-4.25v29.79h14.84v2.07H405.28v-2.07h6.33v-78h-6.1v-2.07Zm13.34,7.88c-.76-2.72-2.26-4.09-4.48-4.09s-4.22,1.44-6,4.32S433,261.51,433,266.34v21a16.73,16.73,0,0,0,2,8.4,6.24,6.24,0,0,0,5.75,3.45q3.8,0,5.17-5.06t1.38-17.71v-6Q447.26,258.63,446.11,254.55Z"/>
          <path d="M472.91,215.16h27.72v42.09a19,19,0,0,1,5.63-8.51q3.8-3.23,11.5-3.22,17.84,0,17.83,19.21v34.61H542v2.07H509.48v-2.07h4.72V262c0-4.6-.31-7.58-.92-8.92a3.36,3.36,0,0,0-3.34-2c-2.45,0-4.62,1.61-6.49,4.83a22.89,22.89,0,0,0-2.82,11.73v31.74h4.94v2.07H472.91v-2.07h6.33V217.23h-6.33Z"/>
        </g>
      </g>
    </g>
  </g>
</svg>
